G04 #@! TF.GenerationSoftware,KiCad,Pcbnew,5.0.2+dfsg1-1*
G04 #@! TF.CreationDate,2020-07-17T18:23:56-07:00*
G04 #@! TF.ProjectId,mawile,6d617769-6c65-42e6-9b69-6361645f7063,rev?*
G04 #@! TF.SameCoordinates,PX4c4db10PY99746c8*
G04 #@! TF.FileFunction,Copper,L1,Top*
G04 #@! TF.FilePolarity,Positive*
%FSLAX46Y46*%
G04 Gerber Fmt 4.6, Leading zero omitted, Abs format (unit mm)*
G04 Created by KiCad (PCBNEW 5.0.2+dfsg1-1) date Fri 17 Jul 2020 06:23:56 PM PDT*
%MOMM*%
%LPD*%
G01*
G04 APERTURE LIST*
G04 #@! TA.AperFunction,Conductor*
%ADD10C,0.100000*%
G04 #@! TD*
G04 #@! TA.AperFunction,SMDPad,CuDef*
%ADD11C,1.150000*%
G04 #@! TD*
G04 #@! TA.AperFunction,ComponentPad*
%ADD12R,1.700000X1.700000*%
G04 #@! TD*
G04 #@! TA.AperFunction,ComponentPad*
%ADD13O,1.700000X1.700000*%
G04 #@! TD*
G04 #@! TA.AperFunction,ViaPad*
%ADD14C,0.900000*%
G04 #@! TD*
G04 #@! TA.AperFunction,ViaPad*
%ADD15C,0.600000*%
G04 #@! TD*
G04 #@! TA.AperFunction,ViaPad*
%ADD16C,1.600000*%
G04 #@! TD*
G04 #@! TA.AperFunction,Conductor*
%ADD17C,1.270000*%
G04 #@! TD*
G04 #@! TA.AperFunction,Conductor*
%ADD18C,0.254000*%
G04 #@! TD*
G04 APERTURE END LIST*
D10*
G04 #@! TO.N,GNDD*
G04 #@! TO.C,C1*
G36*
X18628910Y14160798D02*
X18653135Y14157205D01*
X18676891Y14151254D01*
X18699949Y14143004D01*
X18722087Y14132533D01*
X18743093Y14119943D01*
X18762763Y14105355D01*
X18780908Y14088908D01*
X18797355Y14070763D01*
X18811943Y14051093D01*
X18824533Y14030087D01*
X18835004Y14007949D01*
X18843254Y13984891D01*
X18849205Y13961135D01*
X18852798Y13936910D01*
X18854000Y13912450D01*
X18854000Y13011550D01*
X18852798Y12987090D01*
X18849205Y12962865D01*
X18843254Y12939109D01*
X18835004Y12916051D01*
X18824533Y12893913D01*
X18811943Y12872907D01*
X18797355Y12853237D01*
X18780908Y12835092D01*
X18762763Y12818645D01*
X18743093Y12804057D01*
X18722087Y12791467D01*
X18699949Y12780996D01*
X18676891Y12772746D01*
X18653135Y12766795D01*
X18628910Y12763202D01*
X18604450Y12762000D01*
X17953550Y12762000D01*
X17929090Y12763202D01*
X17904865Y12766795D01*
X17881109Y12772746D01*
X17858051Y12780996D01*
X17835913Y12791467D01*
X17814907Y12804057D01*
X17795237Y12818645D01*
X17777092Y12835092D01*
X17760645Y12853237D01*
X17746057Y12872907D01*
X17733467Y12893913D01*
X17722996Y12916051D01*
X17714746Y12939109D01*
X17708795Y12962865D01*
X17705202Y12987090D01*
X17704000Y13011550D01*
X17704000Y13912450D01*
X17705202Y13936910D01*
X17708795Y13961135D01*
X17714746Y13984891D01*
X17722996Y14007949D01*
X17733467Y14030087D01*
X17746057Y14051093D01*
X17760645Y14070763D01*
X17777092Y14088908D01*
X17795237Y14105355D01*
X17814907Y14119943D01*
X17835913Y14132533D01*
X17858051Y14143004D01*
X17881109Y14151254D01*
X17904865Y14157205D01*
X17929090Y14160798D01*
X17953550Y14162000D01*
X18604450Y14162000D01*
X18628910Y14160798D01*
X18628910Y14160798D01*
G37*
D11*
G04 #@! TD*
G04 #@! TO.P,C1,2*
G04 #@! TO.N,GNDD*
X18279000Y13462000D03*
D10*
G04 #@! TO.N,+3V3*
G04 #@! TO.C,C1*
G36*
X20678505Y14160796D02*
X20702773Y14157196D01*
X20726572Y14151235D01*
X20749671Y14142970D01*
X20771850Y14132480D01*
X20792893Y14119868D01*
X20812599Y14105253D01*
X20830777Y14088777D01*
X20847253Y14070599D01*
X20861868Y14050893D01*
X20874480Y14029850D01*
X20884970Y14007671D01*
X20893235Y13984572D01*
X20899196Y13960773D01*
X20902796Y13936505D01*
X20904000Y13912001D01*
X20904000Y13011999D01*
X20902796Y12987495D01*
X20899196Y12963227D01*
X20893235Y12939428D01*
X20884970Y12916329D01*
X20874480Y12894150D01*
X20861868Y12873107D01*
X20847253Y12853401D01*
X20830777Y12835223D01*
X20812599Y12818747D01*
X20792893Y12804132D01*
X20771850Y12791520D01*
X20749671Y12781030D01*
X20726572Y12772765D01*
X20702773Y12766804D01*
X20678505Y12763204D01*
X20654001Y12762000D01*
X20003999Y12762000D01*
X19979495Y12763204D01*
X19955227Y12766804D01*
X19931428Y12772765D01*
X19908329Y12781030D01*
X19886150Y12791520D01*
X19865107Y12804132D01*
X19845401Y12818747D01*
X19827223Y12835223D01*
X19810747Y12853401D01*
X19796132Y12873107D01*
X19783520Y12894150D01*
X19773030Y12916329D01*
X19764765Y12939428D01*
X19758804Y12963227D01*
X19755204Y12987495D01*
X19754000Y13011999D01*
X19754000Y13912001D01*
X19755204Y13936505D01*
X19758804Y13960773D01*
X19764765Y13984572D01*
X19773030Y14007671D01*
X19783520Y14029850D01*
X19796132Y14050893D01*
X19810747Y14070599D01*
X19827223Y14088777D01*
X19845401Y14105253D01*
X19865107Y14119868D01*
X19886150Y14132480D01*
X19908329Y14142970D01*
X19931428Y14151235D01*
X19955227Y14157196D01*
X19979495Y14160796D01*
X20003999Y14162000D01*
X20654001Y14162000D01*
X20678505Y14160796D01*
X20678505Y14160796D01*
G37*
D11*
G04 #@! TD*
G04 #@! TO.P,C1,1*
G04 #@! TO.N,+3V3*
X20329000Y13462000D03*
D10*
G04 #@! TO.N,+5V*
G04 #@! TO.C,C2*
G36*
X23200505Y14160796D02*
X23224773Y14157196D01*
X23248572Y14151235D01*
X23271671Y14142970D01*
X23293850Y14132480D01*
X23314893Y14119868D01*
X23334599Y14105253D01*
X23352777Y14088777D01*
X23369253Y14070599D01*
X23383868Y14050893D01*
X23396480Y14029850D01*
X23406970Y14007671D01*
X23415235Y13984572D01*
X23421196Y13960773D01*
X23424796Y13936505D01*
X23426000Y13912001D01*
X23426000Y13011999D01*
X23424796Y12987495D01*
X23421196Y12963227D01*
X23415235Y12939428D01*
X23406970Y12916329D01*
X23396480Y12894150D01*
X23383868Y12873107D01*
X23369253Y12853401D01*
X23352777Y12835223D01*
X23334599Y12818747D01*
X23314893Y12804132D01*
X23293850Y12791520D01*
X23271671Y12781030D01*
X23248572Y12772765D01*
X23224773Y12766804D01*
X23200505Y12763204D01*
X23176001Y12762000D01*
X22525999Y12762000D01*
X22501495Y12763204D01*
X22477227Y12766804D01*
X22453428Y12772765D01*
X22430329Y12781030D01*
X22408150Y12791520D01*
X22387107Y12804132D01*
X22367401Y12818747D01*
X22349223Y12835223D01*
X22332747Y12853401D01*
X22318132Y12873107D01*
X22305520Y12894150D01*
X22295030Y12916329D01*
X22286765Y12939428D01*
X22280804Y12963227D01*
X22277204Y12987495D01*
X22276000Y13011999D01*
X22276000Y13912001D01*
X22277204Y13936505D01*
X22280804Y13960773D01*
X22286765Y13984572D01*
X22295030Y14007671D01*
X22305520Y14029850D01*
X22318132Y14050893D01*
X22332747Y14070599D01*
X22349223Y14088777D01*
X22367401Y14105253D01*
X22387107Y14119868D01*
X22408150Y14132480D01*
X22430329Y14142970D01*
X22453428Y14151235D01*
X22477227Y14157196D01*
X22501495Y14160796D01*
X22525999Y14162000D01*
X23176001Y14162000D01*
X23200505Y14160796D01*
X23200505Y14160796D01*
G37*
D11*
G04 #@! TD*
G04 #@! TO.P,C2,1*
G04 #@! TO.N,+5V*
X22851000Y13462000D03*
D10*
G04 #@! TO.N,GNDD*
G04 #@! TO.C,C2*
G36*
X25250910Y14160798D02*
X25275135Y14157205D01*
X25298891Y14151254D01*
X25321949Y14143004D01*
X25344087Y14132533D01*
X25365093Y14119943D01*
X25384763Y14105355D01*
X25402908Y14088908D01*
X25419355Y14070763D01*
X25433943Y14051093D01*
X25446533Y14030087D01*
X25457004Y14007949D01*
X25465254Y13984891D01*
X25471205Y13961135D01*
X25474798Y13936910D01*
X25476000Y13912450D01*
X25476000Y13011550D01*
X25474798Y12987090D01*
X25471205Y12962865D01*
X25465254Y12939109D01*
X25457004Y12916051D01*
X25446533Y12893913D01*
X25433943Y12872907D01*
X25419355Y12853237D01*
X25402908Y12835092D01*
X25384763Y12818645D01*
X25365093Y12804057D01*
X25344087Y12791467D01*
X25321949Y12780996D01*
X25298891Y12772746D01*
X25275135Y12766795D01*
X25250910Y12763202D01*
X25226450Y12762000D01*
X24575550Y12762000D01*
X24551090Y12763202D01*
X24526865Y12766795D01*
X24503109Y12772746D01*
X24480051Y12780996D01*
X24457913Y12791467D01*
X24436907Y12804057D01*
X24417237Y12818645D01*
X24399092Y12835092D01*
X24382645Y12853237D01*
X24368057Y12872907D01*
X24355467Y12893913D01*
X24344996Y12916051D01*
X24336746Y12939109D01*
X24330795Y12962865D01*
X24327202Y12987090D01*
X24326000Y13011550D01*
X24326000Y13912450D01*
X24327202Y13936910D01*
X24330795Y13961135D01*
X24336746Y13984891D01*
X24344996Y14007949D01*
X24355467Y14030087D01*
X24368057Y14051093D01*
X24382645Y14070763D01*
X24399092Y14088908D01*
X24417237Y14105355D01*
X24436907Y14119943D01*
X24457913Y14132533D01*
X24480051Y14143004D01*
X24503109Y14151254D01*
X24526865Y14157205D01*
X24551090Y14160798D01*
X24575550Y14162000D01*
X25226450Y14162000D01*
X25250910Y14160798D01*
X25250910Y14160798D01*
G37*
D11*
G04 #@! TD*
G04 #@! TO.P,C2,2*
G04 #@! TO.N,GNDD*
X24901000Y13462000D03*
D12*
G04 #@! TO.P,J1,1*
G04 #@! TO.N,+3V3*
X20320000Y10160000D03*
D13*
G04 #@! TO.P,J1,2*
G04 #@! TO.N,+5V*
X22860000Y10160000D03*
G04 #@! TO.P,J1,3*
G04 #@! TO.N,/SDA_Pi*
X20320000Y7620000D03*
G04 #@! TO.P,J1,4*
G04 #@! TO.N,+5V*
X22860000Y7620000D03*
G04 #@! TO.P,J1,5*
G04 #@! TO.N,/SCL_Pi*
X20320000Y5080000D03*
G04 #@! TO.P,J1,6*
G04 #@! TO.N,GNDD*
X22860000Y5080000D03*
G04 #@! TD*
D12*
G04 #@! TO.P,J2,1*
G04 #@! TO.N,+3V3*
X15875000Y10160000D03*
D13*
G04 #@! TO.P,J2,2*
G04 #@! TO.N,/SDA_Pi*
X15875000Y7620000D03*
G04 #@! TO.P,J2,3*
G04 #@! TO.N,/SCL_Pi*
X15875000Y5080000D03*
G04 #@! TO.P,J2,4*
G04 #@! TO.N,GNDD*
X15875000Y2540000D03*
G04 #@! TD*
G04 #@! TO.P,J3,4*
G04 #@! TO.N,GNDD*
X11430000Y2540000D03*
G04 #@! TO.P,J3,3*
G04 #@! TO.N,/SCL_Pi*
X11430000Y5080000D03*
G04 #@! TO.P,J3,2*
G04 #@! TO.N,/SDA_Pi*
X11430000Y7620000D03*
D12*
G04 #@! TO.P,J3,1*
G04 #@! TO.N,+3V3*
X11430000Y10160000D03*
G04 #@! TD*
G04 #@! TO.P,J4,1*
G04 #@! TO.N,+5V*
X6985000Y10160000D03*
D13*
G04 #@! TO.P,J4,2*
G04 #@! TO.N,/SDA_Pi*
X6985000Y7620000D03*
G04 #@! TO.P,J4,3*
G04 #@! TO.N,/SCL_Pi*
X6985000Y5080000D03*
G04 #@! TO.P,J4,4*
G04 #@! TO.N,GNDD*
X6985000Y2540000D03*
G04 #@! TD*
G04 #@! TO.P,J5,4*
G04 #@! TO.N,GNDD*
X2540000Y2540000D03*
G04 #@! TO.P,J5,3*
G04 #@! TO.N,/SCL_Pi*
X2540000Y5080000D03*
G04 #@! TO.P,J5,2*
G04 #@! TO.N,/SDA_Pi*
X2540000Y7620000D03*
D12*
G04 #@! TO.P,J5,1*
G04 #@! TO.N,+5V*
X2540000Y10160000D03*
G04 #@! TD*
D14*
G04 #@! TO.N,GNDD*
X25654000Y7620000D03*
D15*
X25654000Y10160000D03*
D16*
X25654000Y5080000D03*
D15*
X18279000Y13462000D03*
X25654000Y13462000D03*
X1270000Y12700000D03*
G04 #@! TD*
D17*
G04 #@! TO.N,+3V3*
X20320000Y10160000D02*
X15875000Y10160000D01*
X11430000Y10160000D02*
X15875000Y10160000D01*
X20320000Y10160000D02*
X20320000Y13335000D01*
G04 #@! TO.N,+5V*
X22860000Y7620000D02*
X22860000Y10160000D01*
X6985000Y10160000D02*
X2540000Y10160000D01*
X6985000Y12700000D02*
X6985000Y10160000D01*
X13335000Y12700000D02*
X6985000Y12700000D01*
X22860000Y10160000D02*
X22860000Y15875000D01*
X16510000Y15875000D02*
X13335000Y12700000D01*
X22860000Y15875000D02*
X16510000Y15875000D01*
G04 #@! TO.N,/SDA_Pi*
X20320000Y7620000D02*
X15875000Y7620000D01*
X15875000Y7620000D02*
X6985000Y7620000D01*
X6985000Y7620000D02*
X2540000Y7620000D01*
G04 #@! TO.N,/SCL_Pi*
X2540000Y5080000D02*
X20320000Y5080000D01*
G04 #@! TD*
D18*
G04 #@! TO.N,GNDD*
G36*
X5788687Y13195529D02*
X5690120Y12700000D01*
X5715000Y12574920D01*
X5715000Y11493073D01*
X5677191Y11467809D01*
X5651928Y11430000D01*
X3873072Y11430000D01*
X3847809Y11467809D01*
X3637765Y11608157D01*
X3390000Y11657440D01*
X1690000Y11657440D01*
X1442235Y11608157D01*
X1232191Y11467809D01*
X1091843Y11257765D01*
X1042560Y11010000D01*
X1042560Y9310000D01*
X1091843Y9062235D01*
X1232191Y8852191D01*
X1442235Y8711843D01*
X1487619Y8702816D01*
X1469375Y8690625D01*
X1141161Y8199418D01*
X1025908Y7620000D01*
X1141161Y7040582D01*
X1469375Y6549375D01*
X1767761Y6350000D01*
X1469375Y6150625D01*
X1141161Y5659418D01*
X1025908Y5080000D01*
X1141161Y4500582D01*
X1469375Y4009375D01*
X1960582Y3681161D01*
X2393744Y3595000D01*
X2686256Y3595000D01*
X3119418Y3681161D01*
X3312239Y3810000D01*
X6212761Y3810000D01*
X6405582Y3681161D01*
X6838744Y3595000D01*
X7131256Y3595000D01*
X7564418Y3681161D01*
X7757239Y3810000D01*
X10657761Y3810000D01*
X10850582Y3681161D01*
X11283744Y3595000D01*
X11576256Y3595000D01*
X12009418Y3681161D01*
X12202239Y3810000D01*
X15102761Y3810000D01*
X15295582Y3681161D01*
X15728744Y3595000D01*
X16021256Y3595000D01*
X16454418Y3681161D01*
X16647239Y3810000D01*
X18288000Y3810000D01*
X18288000Y127000D01*
X127000Y127000D01*
X127000Y13589000D01*
X6051596Y13589000D01*
X5788687Y13195529D01*
X5788687Y13195529D01*
G37*
X5788687Y13195529D02*
X5690120Y12700000D01*
X5715000Y12574920D01*
X5715000Y11493073D01*
X5677191Y11467809D01*
X5651928Y11430000D01*
X3873072Y11430000D01*
X3847809Y11467809D01*
X3637765Y11608157D01*
X3390000Y11657440D01*
X1690000Y11657440D01*
X1442235Y11608157D01*
X1232191Y11467809D01*
X1091843Y11257765D01*
X1042560Y11010000D01*
X1042560Y9310000D01*
X1091843Y9062235D01*
X1232191Y8852191D01*
X1442235Y8711843D01*
X1487619Y8702816D01*
X1469375Y8690625D01*
X1141161Y8199418D01*
X1025908Y7620000D01*
X1141161Y7040582D01*
X1469375Y6549375D01*
X1767761Y6350000D01*
X1469375Y6150625D01*
X1141161Y5659418D01*
X1025908Y5080000D01*
X1141161Y4500582D01*
X1469375Y4009375D01*
X1960582Y3681161D01*
X2393744Y3595000D01*
X2686256Y3595000D01*
X3119418Y3681161D01*
X3312239Y3810000D01*
X6212761Y3810000D01*
X6405582Y3681161D01*
X6838744Y3595000D01*
X7131256Y3595000D01*
X7564418Y3681161D01*
X7757239Y3810000D01*
X10657761Y3810000D01*
X10850582Y3681161D01*
X11283744Y3595000D01*
X11576256Y3595000D01*
X12009418Y3681161D01*
X12202239Y3810000D01*
X15102761Y3810000D01*
X15295582Y3681161D01*
X15728744Y3595000D01*
X16021256Y3595000D01*
X16454418Y3681161D01*
X16647239Y3810000D01*
X18288000Y3810000D01*
X18288000Y127000D01*
X127000Y127000D01*
X127000Y13589000D01*
X6051596Y13589000D01*
X5788687Y13195529D01*
G36*
X26543000Y3937000D02*
X21282308Y3937000D01*
X21390625Y4009375D01*
X21718839Y4500582D01*
X21834092Y5080000D01*
X21718839Y5659418D01*
X21390625Y6150625D01*
X21092239Y6350000D01*
X21390625Y6549375D01*
X21590000Y6847761D01*
X21789375Y6549375D01*
X22280582Y6221161D01*
X22713744Y6135000D01*
X23006256Y6135000D01*
X23439418Y6221161D01*
X23930625Y6549375D01*
X24258839Y7040582D01*
X24374092Y7620000D01*
X24258839Y8199418D01*
X24130000Y8392239D01*
X24130000Y9387761D01*
X24258839Y9580582D01*
X24374092Y10160000D01*
X24258839Y10739418D01*
X24130000Y10932239D01*
X24130000Y15749920D01*
X24154880Y15875000D01*
X24056313Y16370529D01*
X23878262Y16637000D01*
X26543000Y16637000D01*
X26543000Y3937000D01*
X26543000Y3937000D01*
G37*
X26543000Y3937000D02*
X21282308Y3937000D01*
X21390625Y4009375D01*
X21718839Y4500582D01*
X21834092Y5080000D01*
X21718839Y5659418D01*
X21390625Y6150625D01*
X21092239Y6350000D01*
X21390625Y6549375D01*
X21590000Y6847761D01*
X21789375Y6549375D01*
X22280582Y6221161D01*
X22713744Y6135000D01*
X23006256Y6135000D01*
X23439418Y6221161D01*
X23930625Y6549375D01*
X24258839Y7040582D01*
X24374092Y7620000D01*
X24258839Y8199418D01*
X24130000Y8392239D01*
X24130000Y9387761D01*
X24258839Y9580582D01*
X24374092Y10160000D01*
X24258839Y10739418D01*
X24130000Y10932239D01*
X24130000Y15749920D01*
X24154880Y15875000D01*
X24056313Y16370529D01*
X23878262Y16637000D01*
X26543000Y16637000D01*
X26543000Y3937000D01*
G36*
X19369414Y14546586D02*
X19174873Y14255436D01*
X19106560Y13912001D01*
X19106560Y13744421D01*
X19050001Y13460080D01*
X19050000Y11493073D01*
X19012191Y11467809D01*
X18986928Y11430000D01*
X17208072Y11430000D01*
X17182809Y11467809D01*
X16972765Y11608157D01*
X16725000Y11657440D01*
X15025000Y11657440D01*
X14777235Y11608157D01*
X14567191Y11467809D01*
X14541928Y11430000D01*
X13460080Y11430000D01*
X13830529Y11503687D01*
X14250618Y11784382D01*
X14321471Y11890421D01*
X17036051Y14605000D01*
X19456836Y14605000D01*
X19369414Y14546586D01*
X19369414Y14546586D01*
G37*
X19369414Y14546586D02*
X19174873Y14255436D01*
X19106560Y13912001D01*
X19106560Y13744421D01*
X19050001Y13460080D01*
X19050000Y11493073D01*
X19012191Y11467809D01*
X18986928Y11430000D01*
X17208072Y11430000D01*
X17182809Y11467809D01*
X16972765Y11608157D01*
X16725000Y11657440D01*
X15025000Y11657440D01*
X14777235Y11608157D01*
X14567191Y11467809D01*
X14541928Y11430000D01*
X13460080Y11430000D01*
X13830529Y11503687D01*
X14250618Y11784382D01*
X14321471Y11890421D01*
X17036051Y14605000D01*
X19456836Y14605000D01*
X19369414Y14546586D01*
G04 #@! TD*
M02*
