M48
;DRILL file {KiCad 5.0.2+dfsg1-1} date Fri 17 Jul 2020 06:23:49 PM PDT
;FORMAT={2:4/ absolute / inch / suppress leading zeros}
FMAT,2
INCH,TZ
T1C0.0157
T2C0.0354
T3C0.0394
%
G90
G05
T1
X500Y5000
X7196Y5300
X10100Y5300
X10100Y4000
X10100Y3000
T2
X10100Y2000
T3
X2750Y4000
X2750Y3000
X2750Y2000
X2750Y1000
X8000Y4000
X8000Y3000
X8000Y2000
X9000Y4000
X9000Y3000
X9000Y2000
X4500Y4000
X4500Y3000
X4500Y2000
X4500Y1000
X1000Y4000
X1000Y3000
X1000Y2000
X1000Y1000
X6250Y4000
X6250Y3000
X6250Y2000
X6250Y1000
T0
M30
