%FSLAX45Y45*%
G04 Gerber Fmt 4.5, Leading zero omitted, Abs format (unit mm)*
G04 Created by KiCad (PCBNEW 5.0.2+dfsg1-1) date Fri 17 Jul 2020 06:13:56 PM PDT*
%MOMM*%
%LPD*%
G01*
G04 APERTURE LIST*
%ADD10C,0.200000*%
%ADD11C,0.300000*%
G04 APERTURE END LIST*
D10*
X107000Y1290000D02*
X147000Y1250000D01*
X147000Y1290000D02*
X107000Y1250000D01*
X1807900Y1366200D02*
X1847900Y1326200D01*
X1847900Y1366200D02*
X1807900Y1326200D01*
X2545400Y1366200D02*
X2585400Y1326200D01*
X2585400Y1366200D02*
X2545400Y1326200D01*
X2545400Y1036000D02*
X2585400Y996000D01*
X2585400Y1036000D02*
X2545400Y996000D01*
X2545400Y782000D02*
X2585400Y742000D01*
X2585400Y782000D02*
X2545400Y742000D01*
X2610400Y508000D02*
G75*
G03X2610400Y508000I-45000J0D01*
G01*
X698500Y1066000D02*
X698500Y966000D01*
X648500Y1016000D02*
X748500Y1016000D01*
X698500Y812000D02*
X698500Y712000D01*
X648500Y762000D02*
X748500Y762000D01*
X698500Y558000D02*
X698500Y458000D01*
X648500Y508000D02*
X748500Y508000D01*
X698500Y304000D02*
X698500Y204000D01*
X648500Y254000D02*
X748500Y254000D01*
X2032000Y1066000D02*
X2032000Y966000D01*
X1982000Y1016000D02*
X2082000Y1016000D01*
X2032000Y812000D02*
X2032000Y712000D01*
X1982000Y762000D02*
X2082000Y762000D01*
X2032000Y558000D02*
X2032000Y458000D01*
X1982000Y508000D02*
X2082000Y508000D01*
X2286000Y1066000D02*
X2286000Y966000D01*
X2236000Y1016000D02*
X2336000Y1016000D01*
X2286000Y812000D02*
X2286000Y712000D01*
X2236000Y762000D02*
X2336000Y762000D01*
X2286000Y558000D02*
X2286000Y458000D01*
X2236000Y508000D02*
X2336000Y508000D01*
X1143000Y1066000D02*
X1143000Y966000D01*
X1093000Y1016000D02*
X1193000Y1016000D01*
X1143000Y812000D02*
X1143000Y712000D01*
X1093000Y762000D02*
X1193000Y762000D01*
X1143000Y558000D02*
X1143000Y458000D01*
X1093000Y508000D02*
X1193000Y508000D01*
X1143000Y304000D02*
X1143000Y204000D01*
X1093000Y254000D02*
X1193000Y254000D01*
X254000Y1066000D02*
X254000Y966000D01*
X204000Y1016000D02*
X304000Y1016000D01*
X254000Y812000D02*
X254000Y712000D01*
X204000Y762000D02*
X304000Y762000D01*
X254000Y558000D02*
X254000Y458000D01*
X204000Y508000D02*
X304000Y508000D01*
X254000Y304000D02*
X254000Y204000D01*
X204000Y254000D02*
X304000Y254000D01*
X1587500Y1066000D02*
X1587500Y966000D01*
X1537500Y1016000D02*
X1637500Y1016000D01*
X1587500Y812000D02*
X1587500Y712000D01*
X1537500Y762000D02*
X1637500Y762000D01*
X1587500Y558000D02*
X1587500Y458000D01*
X1537500Y508000D02*
X1637500Y508000D01*
X1587500Y304000D02*
X1587500Y204000D01*
X1537500Y254000D02*
X1637500Y254000D01*
D11*
X-7714571Y15625186D02*
X-7714571Y15925186D01*
X-7643143Y15925186D01*
X-7600286Y15910900D01*
X-7571714Y15882329D01*
X-7557429Y15853757D01*
X-7543143Y15796614D01*
X-7543143Y15753757D01*
X-7557429Y15696614D01*
X-7571714Y15668043D01*
X-7600286Y15639471D01*
X-7643143Y15625186D01*
X-7714571Y15625186D01*
X-7414571Y15625186D02*
X-7414571Y15825186D01*
X-7414571Y15768043D02*
X-7400286Y15796614D01*
X-7386000Y15810900D01*
X-7357429Y15825186D01*
X-7328857Y15825186D01*
X-7228857Y15625186D02*
X-7228857Y15825186D01*
X-7228857Y15925186D02*
X-7243143Y15910900D01*
X-7228857Y15896614D01*
X-7214571Y15910900D01*
X-7228857Y15925186D01*
X-7228857Y15896614D01*
X-7043143Y15625186D02*
X-7071714Y15639471D01*
X-7086000Y15668043D01*
X-7086000Y15925186D01*
X-6886000Y15625186D02*
X-6914571Y15639471D01*
X-6928857Y15668043D01*
X-6928857Y15925186D01*
X-6543143Y15625186D02*
X-6543143Y15925186D01*
X-6443143Y15710900D01*
X-6343143Y15925186D01*
X-6343143Y15625186D01*
X-6071714Y15625186D02*
X-6071714Y15782329D01*
X-6086000Y15810900D01*
X-6114571Y15825186D01*
X-6171714Y15825186D01*
X-6200286Y15810900D01*
X-6071714Y15639471D02*
X-6100286Y15625186D01*
X-6171714Y15625186D01*
X-6200286Y15639471D01*
X-6214571Y15668043D01*
X-6214571Y15696614D01*
X-6200286Y15725186D01*
X-6171714Y15739471D01*
X-6100286Y15739471D01*
X-6071714Y15753757D01*
X-5928857Y15825186D02*
X-5928857Y15525186D01*
X-5928857Y15810900D02*
X-5900286Y15825186D01*
X-5843143Y15825186D01*
X-5814571Y15810900D01*
X-5800286Y15796614D01*
X-5786000Y15768043D01*
X-5786000Y15682329D01*
X-5800286Y15653757D01*
X-5814571Y15639471D01*
X-5843143Y15625186D01*
X-5900286Y15625186D01*
X-5928857Y15639471D01*
X-5657429Y15653757D02*
X-5643143Y15639471D01*
X-5657429Y15625186D01*
X-5671714Y15639471D01*
X-5657429Y15653757D01*
X-5657429Y15625186D01*
X-5657429Y15810900D02*
X-5643143Y15796614D01*
X-5657429Y15782329D01*
X-5671714Y15796614D01*
X-5657429Y15810900D01*
X-5657429Y15782329D01*
X-8041000Y15150900D02*
X-8001000Y15110900D01*
X-8001000Y15150900D02*
X-8041000Y15110900D01*
X-7657429Y15295186D02*
X-7628857Y15295186D01*
X-7600286Y15280900D01*
X-7586000Y15266614D01*
X-7571714Y15238043D01*
X-7557429Y15180900D01*
X-7557429Y15109471D01*
X-7571714Y15052329D01*
X-7586000Y15023757D01*
X-7600286Y15009471D01*
X-7628857Y14995186D01*
X-7657429Y14995186D01*
X-7686000Y15009471D01*
X-7700286Y15023757D01*
X-7714571Y15052329D01*
X-7728857Y15109471D01*
X-7728857Y15180900D01*
X-7714571Y15238043D01*
X-7700286Y15266614D01*
X-7686000Y15280900D01*
X-7657429Y15295186D01*
X-7428857Y15023757D02*
X-7414571Y15009471D01*
X-7428857Y14995186D01*
X-7443143Y15009471D01*
X-7428857Y15023757D01*
X-7428857Y14995186D01*
X-7157429Y15195186D02*
X-7157429Y14995186D01*
X-7228857Y15309471D02*
X-7300286Y15095186D01*
X-7114571Y15095186D01*
X-6943143Y15295186D02*
X-6914571Y15295186D01*
X-6886000Y15280900D01*
X-6871714Y15266614D01*
X-6857429Y15238043D01*
X-6843143Y15180900D01*
X-6843143Y15109471D01*
X-6857429Y15052329D01*
X-6871714Y15023757D01*
X-6886000Y15009471D01*
X-6914571Y14995186D01*
X-6943143Y14995186D01*
X-6971714Y15009471D01*
X-6986000Y15023757D01*
X-7000286Y15052329D01*
X-7014571Y15109471D01*
X-7014571Y15180900D01*
X-7000286Y15238043D01*
X-6986000Y15266614D01*
X-6971714Y15280900D01*
X-6943143Y15295186D01*
X-6714571Y14995186D02*
X-6714571Y15195186D01*
X-6714571Y15166614D02*
X-6700286Y15180900D01*
X-6671714Y15195186D01*
X-6628857Y15195186D01*
X-6600286Y15180900D01*
X-6586000Y15152329D01*
X-6586000Y14995186D01*
X-6586000Y15152329D02*
X-6571714Y15180900D01*
X-6543143Y15195186D01*
X-6500286Y15195186D01*
X-6471714Y15180900D01*
X-6457429Y15152329D01*
X-6457429Y14995186D01*
X-6314571Y14995186D02*
X-6314571Y15195186D01*
X-6314571Y15166614D02*
X-6300286Y15180900D01*
X-6271714Y15195186D01*
X-6228857Y15195186D01*
X-6200286Y15180900D01*
X-6186000Y15152329D01*
X-6186000Y14995186D01*
X-6186000Y15152329D02*
X-6171714Y15180900D01*
X-6143143Y15195186D01*
X-6100286Y15195186D01*
X-6071714Y15180900D01*
X-6057429Y15152329D01*
X-6057429Y14995186D01*
X-5471714Y15309471D02*
X-5728857Y14923757D01*
X-5086000Y15295186D02*
X-5057429Y15295186D01*
X-5028857Y15280900D01*
X-5014572Y15266614D01*
X-5000286Y15238043D01*
X-4986000Y15180900D01*
X-4986000Y15109471D01*
X-5000286Y15052329D01*
X-5014572Y15023757D01*
X-5028857Y15009471D01*
X-5057429Y14995186D01*
X-5086000Y14995186D01*
X-5114572Y15009471D01*
X-5128857Y15023757D01*
X-5143143Y15052329D01*
X-5157429Y15109471D01*
X-5157429Y15180900D01*
X-5143143Y15238043D01*
X-5128857Y15266614D01*
X-5114572Y15280900D01*
X-5086000Y15295186D01*
X-4857429Y15023757D02*
X-4843143Y15009471D01*
X-4857429Y14995186D01*
X-4871714Y15009471D01*
X-4857429Y15023757D01*
X-4857429Y14995186D01*
X-4657429Y15295186D02*
X-4628857Y15295186D01*
X-4600286Y15280900D01*
X-4586000Y15266614D01*
X-4571714Y15238043D01*
X-4557429Y15180900D01*
X-4557429Y15109471D01*
X-4571714Y15052329D01*
X-4586000Y15023757D01*
X-4600286Y15009471D01*
X-4628857Y14995186D01*
X-4657429Y14995186D01*
X-4686000Y15009471D01*
X-4700286Y15023757D01*
X-4714572Y15052329D01*
X-4728857Y15109471D01*
X-4728857Y15180900D01*
X-4714572Y15238043D01*
X-4700286Y15266614D01*
X-4686000Y15280900D01*
X-4657429Y15295186D01*
X-4271714Y14995186D02*
X-4443143Y14995186D01*
X-4357429Y14995186D02*
X-4357429Y15295186D01*
X-4386000Y15252329D01*
X-4414572Y15223757D01*
X-4443143Y15209471D01*
X-4014571Y15295186D02*
X-4071714Y15295186D01*
X-4100286Y15280900D01*
X-4114571Y15266614D01*
X-4143143Y15223757D01*
X-4157429Y15166614D01*
X-4157429Y15052329D01*
X-4143143Y15023757D01*
X-4128857Y15009471D01*
X-4100286Y14995186D01*
X-4043143Y14995186D01*
X-4014571Y15009471D01*
X-4000286Y15023757D01*
X-3986000Y15052329D01*
X-3986000Y15123757D01*
X-4000286Y15152329D01*
X-4014571Y15166614D01*
X-4043143Y15180900D01*
X-4100286Y15180900D01*
X-4128857Y15166614D01*
X-4143143Y15152329D01*
X-4157429Y15123757D01*
X-3871714Y15295186D02*
X-3871714Y15238043D01*
X-3757429Y15295186D02*
X-3757429Y15238043D01*
X-3314571Y14880900D02*
X-3328857Y14895186D01*
X-3357429Y14938043D01*
X-3371714Y14966614D01*
X-3386000Y15009471D01*
X-3400286Y15080900D01*
X-3400286Y15138043D01*
X-3386000Y15209471D01*
X-3371714Y15252329D01*
X-3357429Y15280900D01*
X-3328857Y15323757D01*
X-3314571Y15338043D01*
X-3057429Y15295186D02*
X-3200286Y15295186D01*
X-3214571Y15152329D01*
X-3200286Y15166614D01*
X-3171714Y15180900D01*
X-3100286Y15180900D01*
X-3071714Y15166614D01*
X-3057429Y15152329D01*
X-3043143Y15123757D01*
X-3043143Y15052329D01*
X-3057429Y15023757D01*
X-3071714Y15009471D01*
X-3100286Y14995186D01*
X-3171714Y14995186D01*
X-3200286Y15009471D01*
X-3214571Y15023757D01*
X-2686000Y14995186D02*
X-2686000Y15295186D01*
X-2557429Y14995186D02*
X-2557429Y15152329D01*
X-2571714Y15180900D01*
X-2600286Y15195186D01*
X-2643143Y15195186D01*
X-2671714Y15180900D01*
X-2686000Y15166614D01*
X-2371714Y14995186D02*
X-2400286Y15009471D01*
X-2414572Y15023757D01*
X-2428857Y15052329D01*
X-2428857Y15138043D01*
X-2414572Y15166614D01*
X-2400286Y15180900D01*
X-2371714Y15195186D01*
X-2328857Y15195186D01*
X-2300286Y15180900D01*
X-2286000Y15166614D01*
X-2271714Y15138043D01*
X-2271714Y15052329D01*
X-2286000Y15023757D01*
X-2300286Y15009471D01*
X-2328857Y14995186D01*
X-2371714Y14995186D01*
X-2100286Y14995186D02*
X-2128857Y15009471D01*
X-2143143Y15038043D01*
X-2143143Y15295186D01*
X-1871714Y15009471D02*
X-1900286Y14995186D01*
X-1957429Y14995186D01*
X-1986000Y15009471D01*
X-2000286Y15038043D01*
X-2000286Y15152329D01*
X-1986000Y15180900D01*
X-1957429Y15195186D01*
X-1900286Y15195186D01*
X-1871714Y15180900D01*
X-1857429Y15152329D01*
X-1857429Y15123757D01*
X-2000286Y15095186D01*
X-1743143Y15009471D02*
X-1714571Y14995186D01*
X-1657429Y14995186D01*
X-1628857Y15009471D01*
X-1614571Y15038043D01*
X-1614571Y15052329D01*
X-1628857Y15080900D01*
X-1657429Y15095186D01*
X-1700286Y15095186D01*
X-1728857Y15109471D01*
X-1743143Y15138043D01*
X-1743143Y15152329D01*
X-1728857Y15180900D01*
X-1700286Y15195186D01*
X-1657429Y15195186D01*
X-1628857Y15180900D01*
X-1514571Y14880900D02*
X-1500286Y14895186D01*
X-1471714Y14938043D01*
X-1457429Y14966614D01*
X-1443143Y15009471D01*
X-1428857Y15080900D01*
X-1428857Y15138043D01*
X-1443143Y15209471D01*
X-1457429Y15252329D01*
X-1471714Y15280900D01*
X-1500286Y15323757D01*
X-1514571Y15338043D01*
X-8001000Y14734900D02*
G75*
G03X-8001000Y14734900I-45000J0D01*
G01*
X-7657429Y14899186D02*
X-7628857Y14899186D01*
X-7600286Y14884900D01*
X-7586000Y14870614D01*
X-7571714Y14842043D01*
X-7557429Y14784900D01*
X-7557429Y14713471D01*
X-7571714Y14656329D01*
X-7586000Y14627757D01*
X-7600286Y14613471D01*
X-7628857Y14599186D01*
X-7657429Y14599186D01*
X-7686000Y14613471D01*
X-7700286Y14627757D01*
X-7714571Y14656329D01*
X-7728857Y14713471D01*
X-7728857Y14784900D01*
X-7714571Y14842043D01*
X-7700286Y14870614D01*
X-7686000Y14884900D01*
X-7657429Y14899186D01*
X-7428857Y14627757D02*
X-7414571Y14613471D01*
X-7428857Y14599186D01*
X-7443143Y14613471D01*
X-7428857Y14627757D01*
X-7428857Y14599186D01*
X-7271714Y14599186D02*
X-7214571Y14599186D01*
X-7186000Y14613471D01*
X-7171714Y14627757D01*
X-7143143Y14670614D01*
X-7128857Y14727757D01*
X-7128857Y14842043D01*
X-7143143Y14870614D01*
X-7157429Y14884900D01*
X-7186000Y14899186D01*
X-7243143Y14899186D01*
X-7271714Y14884900D01*
X-7286000Y14870614D01*
X-7300286Y14842043D01*
X-7300286Y14770614D01*
X-7286000Y14742043D01*
X-7271714Y14727757D01*
X-7243143Y14713471D01*
X-7186000Y14713471D01*
X-7157429Y14727757D01*
X-7143143Y14742043D01*
X-7128857Y14770614D01*
X-6943143Y14899186D02*
X-6914571Y14899186D01*
X-6886000Y14884900D01*
X-6871714Y14870614D01*
X-6857429Y14842043D01*
X-6843143Y14784900D01*
X-6843143Y14713471D01*
X-6857429Y14656329D01*
X-6871714Y14627757D01*
X-6886000Y14613471D01*
X-6914571Y14599186D01*
X-6943143Y14599186D01*
X-6971714Y14613471D01*
X-6986000Y14627757D01*
X-7000286Y14656329D01*
X-7014571Y14713471D01*
X-7014571Y14784900D01*
X-7000286Y14842043D01*
X-6986000Y14870614D01*
X-6971714Y14884900D01*
X-6943143Y14899186D01*
X-6714571Y14599186D02*
X-6714571Y14799186D01*
X-6714571Y14770614D02*
X-6700286Y14784900D01*
X-6671714Y14799186D01*
X-6628857Y14799186D01*
X-6600286Y14784900D01*
X-6586000Y14756329D01*
X-6586000Y14599186D01*
X-6586000Y14756329D02*
X-6571714Y14784900D01*
X-6543143Y14799186D01*
X-6500286Y14799186D01*
X-6471714Y14784900D01*
X-6457429Y14756329D01*
X-6457429Y14599186D01*
X-6314571Y14599186D02*
X-6314571Y14799186D01*
X-6314571Y14770614D02*
X-6300286Y14784900D01*
X-6271714Y14799186D01*
X-6228857Y14799186D01*
X-6200286Y14784900D01*
X-6186000Y14756329D01*
X-6186000Y14599186D01*
X-6186000Y14756329D02*
X-6171714Y14784900D01*
X-6143143Y14799186D01*
X-6100286Y14799186D01*
X-6071714Y14784900D01*
X-6057429Y14756329D01*
X-6057429Y14599186D01*
X-5471714Y14913471D02*
X-5728857Y14527757D01*
X-5086000Y14899186D02*
X-5057429Y14899186D01*
X-5028857Y14884900D01*
X-5014572Y14870614D01*
X-5000286Y14842043D01*
X-4986000Y14784900D01*
X-4986000Y14713471D01*
X-5000286Y14656329D01*
X-5014572Y14627757D01*
X-5028857Y14613471D01*
X-5057429Y14599186D01*
X-5086000Y14599186D01*
X-5114572Y14613471D01*
X-5128857Y14627757D01*
X-5143143Y14656329D01*
X-5157429Y14713471D01*
X-5157429Y14784900D01*
X-5143143Y14842043D01*
X-5128857Y14870614D01*
X-5114572Y14884900D01*
X-5086000Y14899186D01*
X-4857429Y14627757D02*
X-4843143Y14613471D01*
X-4857429Y14599186D01*
X-4871714Y14613471D01*
X-4857429Y14627757D01*
X-4857429Y14599186D01*
X-4657429Y14899186D02*
X-4628857Y14899186D01*
X-4600286Y14884900D01*
X-4586000Y14870614D01*
X-4571714Y14842043D01*
X-4557429Y14784900D01*
X-4557429Y14713471D01*
X-4571714Y14656329D01*
X-4586000Y14627757D01*
X-4600286Y14613471D01*
X-4628857Y14599186D01*
X-4657429Y14599186D01*
X-4686000Y14613471D01*
X-4700286Y14627757D01*
X-4714572Y14656329D01*
X-4728857Y14713471D01*
X-4728857Y14784900D01*
X-4714572Y14842043D01*
X-4700286Y14870614D01*
X-4686000Y14884900D01*
X-4657429Y14899186D01*
X-4457429Y14899186D02*
X-4271714Y14899186D01*
X-4371714Y14784900D01*
X-4328857Y14784900D01*
X-4300286Y14770614D01*
X-4286000Y14756329D01*
X-4271714Y14727757D01*
X-4271714Y14656329D01*
X-4286000Y14627757D01*
X-4300286Y14613471D01*
X-4328857Y14599186D01*
X-4414572Y14599186D01*
X-4443143Y14613471D01*
X-4457429Y14627757D01*
X-4000286Y14899186D02*
X-4143143Y14899186D01*
X-4157429Y14756329D01*
X-4143143Y14770614D01*
X-4114571Y14784900D01*
X-4043143Y14784900D01*
X-4014571Y14770614D01*
X-4000286Y14756329D01*
X-3986000Y14727757D01*
X-3986000Y14656329D01*
X-4000286Y14627757D01*
X-4014571Y14613471D01*
X-4043143Y14599186D01*
X-4114571Y14599186D01*
X-4143143Y14613471D01*
X-4157429Y14627757D01*
X-3871714Y14899186D02*
X-3871714Y14842043D01*
X-3757429Y14899186D02*
X-3757429Y14842043D01*
X-3314571Y14484900D02*
X-3328857Y14499186D01*
X-3357429Y14542043D01*
X-3371714Y14570614D01*
X-3386000Y14613471D01*
X-3400286Y14684900D01*
X-3400286Y14742043D01*
X-3386000Y14813471D01*
X-3371714Y14856329D01*
X-3357429Y14884900D01*
X-3328857Y14927757D01*
X-3314571Y14942043D01*
X-3043143Y14599186D02*
X-3214571Y14599186D01*
X-3128857Y14599186D02*
X-3128857Y14899186D01*
X-3157429Y14856329D01*
X-3186000Y14827757D01*
X-3214571Y14813471D01*
X-2686000Y14599186D02*
X-2686000Y14899186D01*
X-2557429Y14599186D02*
X-2557429Y14756329D01*
X-2571714Y14784900D01*
X-2600286Y14799186D01*
X-2643143Y14799186D01*
X-2671714Y14784900D01*
X-2686000Y14770614D01*
X-2371714Y14599186D02*
X-2400286Y14613471D01*
X-2414572Y14627757D01*
X-2428857Y14656329D01*
X-2428857Y14742043D01*
X-2414572Y14770614D01*
X-2400286Y14784900D01*
X-2371714Y14799186D01*
X-2328857Y14799186D01*
X-2300286Y14784900D01*
X-2286000Y14770614D01*
X-2271714Y14742043D01*
X-2271714Y14656329D01*
X-2286000Y14627757D01*
X-2300286Y14613471D01*
X-2328857Y14599186D01*
X-2371714Y14599186D01*
X-2100286Y14599186D02*
X-2128857Y14613471D01*
X-2143143Y14642043D01*
X-2143143Y14899186D01*
X-1871714Y14613471D02*
X-1900286Y14599186D01*
X-1957429Y14599186D01*
X-1986000Y14613471D01*
X-2000286Y14642043D01*
X-2000286Y14756329D01*
X-1986000Y14784900D01*
X-1957429Y14799186D01*
X-1900286Y14799186D01*
X-1871714Y14784900D01*
X-1857429Y14756329D01*
X-1857429Y14727757D01*
X-2000286Y14699186D01*
X-1757429Y14484900D02*
X-1743143Y14499186D01*
X-1714571Y14542043D01*
X-1700286Y14570614D01*
X-1686000Y14613471D01*
X-1671714Y14684900D01*
X-1671714Y14742043D01*
X-1686000Y14813471D01*
X-1700286Y14856329D01*
X-1714571Y14884900D01*
X-1743143Y14927757D01*
X-1757429Y14942043D01*
X-8051000Y14388900D02*
X-8051000Y14288900D01*
X-8101000Y14338900D02*
X-8001000Y14338900D01*
X-7557429Y14203186D02*
X-7728857Y14203186D01*
X-7643143Y14203186D02*
X-7643143Y14503186D01*
X-7671714Y14460329D01*
X-7700286Y14431757D01*
X-7728857Y14417471D01*
X-7428857Y14231757D02*
X-7414571Y14217471D01*
X-7428857Y14203186D01*
X-7443143Y14217471D01*
X-7428857Y14231757D01*
X-7428857Y14203186D01*
X-7228857Y14503186D02*
X-7200286Y14503186D01*
X-7171714Y14488900D01*
X-7157429Y14474614D01*
X-7143143Y14446043D01*
X-7128857Y14388900D01*
X-7128857Y14317471D01*
X-7143143Y14260329D01*
X-7157429Y14231757D01*
X-7171714Y14217471D01*
X-7200286Y14203186D01*
X-7228857Y14203186D01*
X-7257429Y14217471D01*
X-7271714Y14231757D01*
X-7286000Y14260329D01*
X-7300286Y14317471D01*
X-7300286Y14388900D01*
X-7286000Y14446043D01*
X-7271714Y14474614D01*
X-7257429Y14488900D01*
X-7228857Y14503186D01*
X-6943143Y14503186D02*
X-6914571Y14503186D01*
X-6886000Y14488900D01*
X-6871714Y14474614D01*
X-6857429Y14446043D01*
X-6843143Y14388900D01*
X-6843143Y14317471D01*
X-6857429Y14260329D01*
X-6871714Y14231757D01*
X-6886000Y14217471D01*
X-6914571Y14203186D01*
X-6943143Y14203186D01*
X-6971714Y14217471D01*
X-6986000Y14231757D01*
X-7000286Y14260329D01*
X-7014571Y14317471D01*
X-7014571Y14388900D01*
X-7000286Y14446043D01*
X-6986000Y14474614D01*
X-6971714Y14488900D01*
X-6943143Y14503186D01*
X-6714571Y14203186D02*
X-6714571Y14403186D01*
X-6714571Y14374614D02*
X-6700286Y14388900D01*
X-6671714Y14403186D01*
X-6628857Y14403186D01*
X-6600286Y14388900D01*
X-6586000Y14360329D01*
X-6586000Y14203186D01*
X-6586000Y14360329D02*
X-6571714Y14388900D01*
X-6543143Y14403186D01*
X-6500286Y14403186D01*
X-6471714Y14388900D01*
X-6457429Y14360329D01*
X-6457429Y14203186D01*
X-6314571Y14203186D02*
X-6314571Y14403186D01*
X-6314571Y14374614D02*
X-6300286Y14388900D01*
X-6271714Y14403186D01*
X-6228857Y14403186D01*
X-6200286Y14388900D01*
X-6186000Y14360329D01*
X-6186000Y14203186D01*
X-6186000Y14360329D02*
X-6171714Y14388900D01*
X-6143143Y14403186D01*
X-6100286Y14403186D01*
X-6071714Y14388900D01*
X-6057429Y14360329D01*
X-6057429Y14203186D01*
X-5471714Y14517471D02*
X-5728857Y14131757D01*
X-5086000Y14503186D02*
X-5057429Y14503186D01*
X-5028857Y14488900D01*
X-5014572Y14474614D01*
X-5000286Y14446043D01*
X-4986000Y14388900D01*
X-4986000Y14317471D01*
X-5000286Y14260329D01*
X-5014572Y14231757D01*
X-5028857Y14217471D01*
X-5057429Y14203186D01*
X-5086000Y14203186D01*
X-5114572Y14217471D01*
X-5128857Y14231757D01*
X-5143143Y14260329D01*
X-5157429Y14317471D01*
X-5157429Y14388900D01*
X-5143143Y14446043D01*
X-5128857Y14474614D01*
X-5114572Y14488900D01*
X-5086000Y14503186D01*
X-4857429Y14231757D02*
X-4843143Y14217471D01*
X-4857429Y14203186D01*
X-4871714Y14217471D01*
X-4857429Y14231757D01*
X-4857429Y14203186D01*
X-4657429Y14503186D02*
X-4628857Y14503186D01*
X-4600286Y14488900D01*
X-4586000Y14474614D01*
X-4571714Y14446043D01*
X-4557429Y14388900D01*
X-4557429Y14317471D01*
X-4571714Y14260329D01*
X-4586000Y14231757D01*
X-4600286Y14217471D01*
X-4628857Y14203186D01*
X-4657429Y14203186D01*
X-4686000Y14217471D01*
X-4700286Y14231757D01*
X-4714572Y14260329D01*
X-4728857Y14317471D01*
X-4728857Y14388900D01*
X-4714572Y14446043D01*
X-4700286Y14474614D01*
X-4686000Y14488900D01*
X-4657429Y14503186D01*
X-4457429Y14503186D02*
X-4271714Y14503186D01*
X-4371714Y14388900D01*
X-4328857Y14388900D01*
X-4300286Y14374614D01*
X-4286000Y14360329D01*
X-4271714Y14331757D01*
X-4271714Y14260329D01*
X-4286000Y14231757D01*
X-4300286Y14217471D01*
X-4328857Y14203186D01*
X-4414572Y14203186D01*
X-4443143Y14217471D01*
X-4457429Y14231757D01*
X-4128857Y14203186D02*
X-4071714Y14203186D01*
X-4043143Y14217471D01*
X-4028857Y14231757D01*
X-4000286Y14274614D01*
X-3986000Y14331757D01*
X-3986000Y14446043D01*
X-4000286Y14474614D01*
X-4014571Y14488900D01*
X-4043143Y14503186D01*
X-4100286Y14503186D01*
X-4128857Y14488900D01*
X-4143143Y14474614D01*
X-4157429Y14446043D01*
X-4157429Y14374614D01*
X-4143143Y14346043D01*
X-4128857Y14331757D01*
X-4100286Y14317471D01*
X-4043143Y14317471D01*
X-4014571Y14331757D01*
X-4000286Y14346043D01*
X-3986000Y14374614D01*
X-3871714Y14503186D02*
X-3871714Y14446043D01*
X-3757429Y14503186D02*
X-3757429Y14446043D01*
X-3314571Y14088900D02*
X-3328857Y14103186D01*
X-3357429Y14146043D01*
X-3371714Y14174614D01*
X-3386000Y14217471D01*
X-3400286Y14288900D01*
X-3400286Y14346043D01*
X-3386000Y14417471D01*
X-3371714Y14460329D01*
X-3357429Y14488900D01*
X-3328857Y14531757D01*
X-3314571Y14546043D01*
X-3214571Y14474614D02*
X-3200286Y14488900D01*
X-3171714Y14503186D01*
X-3100286Y14503186D01*
X-3071714Y14488900D01*
X-3057429Y14474614D01*
X-3043143Y14446043D01*
X-3043143Y14417471D01*
X-3057429Y14374614D01*
X-3228857Y14203186D01*
X-3043143Y14203186D01*
X-2928857Y14474614D02*
X-2914571Y14488900D01*
X-2886000Y14503186D01*
X-2814571Y14503186D01*
X-2786000Y14488900D01*
X-2771714Y14474614D01*
X-2757429Y14446043D01*
X-2757429Y14417471D01*
X-2771714Y14374614D01*
X-2943143Y14203186D01*
X-2757429Y14203186D01*
X-2400286Y14203186D02*
X-2400286Y14503186D01*
X-2271714Y14203186D02*
X-2271714Y14360329D01*
X-2286000Y14388900D01*
X-2314572Y14403186D01*
X-2357429Y14403186D01*
X-2386000Y14388900D01*
X-2400286Y14374614D01*
X-2086000Y14203186D02*
X-2114572Y14217471D01*
X-2128857Y14231757D01*
X-2143143Y14260329D01*
X-2143143Y14346043D01*
X-2128857Y14374614D01*
X-2114572Y14388900D01*
X-2086000Y14403186D01*
X-2043143Y14403186D01*
X-2014571Y14388900D01*
X-2000286Y14374614D01*
X-1986000Y14346043D01*
X-1986000Y14260329D01*
X-2000286Y14231757D01*
X-2014571Y14217471D01*
X-2043143Y14203186D01*
X-2086000Y14203186D01*
X-1814571Y14203186D02*
X-1843143Y14217471D01*
X-1857429Y14246043D01*
X-1857429Y14503186D01*
X-1586000Y14217471D02*
X-1614571Y14203186D01*
X-1671714Y14203186D01*
X-1700286Y14217471D01*
X-1714571Y14246043D01*
X-1714571Y14360329D01*
X-1700286Y14388900D01*
X-1671714Y14403186D01*
X-1614571Y14403186D01*
X-1586000Y14388900D01*
X-1571714Y14360329D01*
X-1571714Y14331757D01*
X-1714571Y14303186D01*
X-1457429Y14217471D02*
X-1428857Y14203186D01*
X-1371714Y14203186D01*
X-1343143Y14217471D01*
X-1328857Y14246043D01*
X-1328857Y14260329D01*
X-1343143Y14288900D01*
X-1371714Y14303186D01*
X-1414571Y14303186D01*
X-1443143Y14317471D01*
X-1457429Y14346043D01*
X-1457429Y14360329D01*
X-1443143Y14388900D01*
X-1414571Y14403186D01*
X-1371714Y14403186D01*
X-1343143Y14388900D01*
X-1228857Y14088900D02*
X-1214572Y14103186D01*
X-1186000Y14146043D01*
X-1171714Y14174614D01*
X-1157429Y14217471D01*
X-1143143Y14288900D01*
X-1143143Y14346043D01*
X-1157429Y14417471D01*
X-1171714Y14460329D01*
X-1186000Y14488900D01*
X-1214572Y14531757D01*
X-1228857Y14546043D01*
M02*
