G04 #@! TF.GenerationSoftware,KiCad,Pcbnew,5.0.2+dfsg1-1*
G04 #@! TF.CreationDate,2020-07-17T18:23:56-07:00*
G04 #@! TF.ProjectId,mawile,6d617769-6c65-42e6-9b69-6361645f7063,rev?*
G04 #@! TF.SameCoordinates,PX4c4db10PY99746c8*
G04 #@! TF.FileFunction,Legend,Bot*
G04 #@! TF.FilePolarity,Positive*
%FSLAX46Y46*%
G04 Gerber Fmt 4.6, Leading zero omitted, Abs format (unit mm)*
G04 Created by KiCad (PCBNEW 5.0.2+dfsg1-1) date Fri 17 Jul 2020 06:23:56 PM PDT*
%MOMM*%
%LPD*%
G01*
G04 APERTURE LIST*
%ADD10C,0.150000*%
G04 APERTURE END LIST*
D10*
X20846714Y15876572D02*
X20846714Y15476572D01*
X20846714Y15819429D02*
X20818142Y15848000D01*
X20761000Y15876572D01*
X20675285Y15876572D01*
X20618142Y15848000D01*
X20589571Y15790858D01*
X20589571Y15476572D01*
X20046714Y15876572D02*
X20046714Y15476572D01*
X20303857Y15876572D02*
X20303857Y15562286D01*
X20275285Y15505143D01*
X20218142Y15476572D01*
X20132428Y15476572D01*
X20075285Y15505143D01*
X20046714Y15533715D01*
X19761000Y15476572D02*
X19761000Y16076572D01*
X19761000Y15848000D02*
X19703857Y15876572D01*
X19589571Y15876572D01*
X19532428Y15848000D01*
X19503857Y15819429D01*
X19475285Y15762286D01*
X19475285Y15590858D01*
X19503857Y15533715D01*
X19532428Y15505143D01*
X19589571Y15476572D01*
X19703857Y15476572D01*
X19761000Y15505143D01*
X19218142Y15476572D02*
X19218142Y16076572D01*
X19218142Y15848000D02*
X19161000Y15876572D01*
X19046714Y15876572D01*
X18989571Y15848000D01*
X18961000Y15819429D01*
X18932428Y15762286D01*
X18932428Y15590858D01*
X18961000Y15533715D01*
X18989571Y15505143D01*
X19046714Y15476572D01*
X19161000Y15476572D01*
X19218142Y15505143D01*
X18732428Y15876572D02*
X18589571Y15476572D01*
X18446714Y15876572D02*
X18589571Y15476572D01*
X18646714Y15333715D01*
X18675285Y15305143D01*
X18732428Y15276572D01*
X18189571Y15505143D02*
X18189571Y15476572D01*
X18218142Y15419429D01*
X18246714Y15390858D01*
X17503857Y16019429D02*
X17475285Y16048000D01*
X17418142Y16076572D01*
X17275285Y16076572D01*
X17218142Y16048000D01*
X17189571Y16019429D01*
X17161000Y15962286D01*
X17161000Y15905143D01*
X17189571Y15819429D01*
X17532428Y15476572D01*
X17161000Y15476572D01*
X16789571Y16076572D02*
X16732428Y16076572D01*
X16675285Y16048000D01*
X16646714Y16019429D01*
X16618142Y15962286D01*
X16589571Y15848000D01*
X16589571Y15705143D01*
X16618142Y15590858D01*
X16646714Y15533715D01*
X16675285Y15505143D01*
X16732428Y15476572D01*
X16789571Y15476572D01*
X16846714Y15505143D01*
X16875285Y15533715D01*
X16903857Y15590858D01*
X16932428Y15705143D01*
X16932428Y15848000D01*
X16903857Y15962286D01*
X16875285Y16019429D01*
X16846714Y16048000D01*
X16789571Y16076572D01*
X16361000Y16019429D02*
X16332428Y16048000D01*
X16275285Y16076572D01*
X16132428Y16076572D01*
X16075285Y16048000D01*
X16046714Y16019429D01*
X16018142Y15962286D01*
X16018142Y15905143D01*
X16046714Y15819429D01*
X16389571Y15476572D01*
X16018142Y15476572D01*
X15646714Y16076572D02*
X15589571Y16076572D01*
X15532428Y16048000D01*
X15503857Y16019429D01*
X15475285Y15962286D01*
X15446714Y15848000D01*
X15446714Y15705143D01*
X15475285Y15590858D01*
X15503857Y15533715D01*
X15532428Y15505143D01*
X15589571Y15476572D01*
X15646714Y15476572D01*
X15703857Y15505143D01*
X15732428Y15533715D01*
X15761000Y15590858D01*
X15789571Y15705143D01*
X15789571Y15848000D01*
X15761000Y15962286D01*
X15732428Y16019429D01*
X15703857Y16048000D01*
X15646714Y16076572D01*
M02*
