G04 #@! TF.GenerationSoftware,KiCad,Pcbnew,5.0.2+dfsg1-1*
G04 #@! TF.CreationDate,2020-07-17T18:23:56-07:00*
G04 #@! TF.ProjectId,mawile,6d617769-6c65-42e6-9b69-6361645f7063,rev?*
G04 #@! TF.SameCoordinates,PX4c4db10PY99746c8*
G04 #@! TF.FileFunction,Legend,Top*
G04 #@! TF.FilePolarity,Positive*
%FSLAX46Y46*%
G04 Gerber Fmt 4.6, Leading zero omitted, Abs format (unit mm)*
G04 Created by KiCad (PCBNEW 5.0.2+dfsg1-1) date Fri 17 Jul 2020 06:23:56 PM PDT*
%MOMM*%
%LPD*%
G01*
G04 APERTURE LIST*
%ADD10C,0.075000*%
%ADD11C,0.100000*%
%ADD12C,0.200000*%
%ADD13C,0.120000*%
G04 APERTURE END LIST*
D10*
X22799857Y14977286D02*
X22799857Y15177286D01*
X22799857Y15148715D02*
X22814142Y15163000D01*
X22842714Y15177286D01*
X22885571Y15177286D01*
X22914142Y15163000D01*
X22928428Y15134429D01*
X22928428Y14977286D01*
X22928428Y15134429D02*
X22942714Y15163000D01*
X22971285Y15177286D01*
X23014142Y15177286D01*
X23042714Y15163000D01*
X23057000Y15134429D01*
X23057000Y14977286D01*
X23199857Y14977286D02*
X23199857Y15277286D01*
X23228428Y15091572D02*
X23314142Y14977286D01*
X23314142Y15177286D02*
X23199857Y15063000D01*
X23442714Y14977286D02*
X23442714Y15177286D01*
X23442714Y15277286D02*
X23428428Y15263000D01*
X23442714Y15248715D01*
X23457000Y15263000D01*
X23442714Y15277286D01*
X23442714Y15248715D01*
X24242714Y14863000D02*
X24257000Y14877286D01*
X24285571Y14920143D01*
X24299857Y14948715D01*
X24314142Y14991572D01*
X24328428Y15063000D01*
X24328428Y15120143D01*
X24314142Y15191572D01*
X24299857Y15234429D01*
X24285571Y15263000D01*
X24257000Y15305858D01*
X24242714Y15320143D01*
X24757000Y15277286D02*
X24785571Y15277286D01*
X24814142Y15263000D01*
X24828428Y15248715D01*
X24842714Y15220143D01*
X24857000Y15163000D01*
X24857000Y15091572D01*
X24842714Y15034429D01*
X24828428Y15005858D01*
X24814142Y14991572D01*
X24785571Y14977286D01*
X24757000Y14977286D01*
X24728428Y14991572D01*
X24714142Y15005858D01*
X24699857Y15034429D01*
X24685571Y15091572D01*
X24685571Y15163000D01*
X24699857Y15220143D01*
X24714142Y15248715D01*
X24728428Y15263000D01*
X24757000Y15277286D01*
X25257000Y14977286D02*
X25228428Y14991572D01*
X25214142Y15005858D01*
X25199857Y15034429D01*
X25199857Y15120143D01*
X25214142Y15148715D01*
X25228428Y15163000D01*
X25257000Y15177286D01*
X25299857Y15177286D01*
X25328428Y15163000D01*
X25342714Y15148715D01*
X25357000Y15120143D01*
X25357000Y15034429D01*
X25342714Y15005858D01*
X25328428Y14991572D01*
X25299857Y14977286D01*
X25257000Y14977286D01*
X25714142Y15005858D02*
X25728428Y14991572D01*
X25714142Y14977286D01*
X25699857Y14991572D01*
X25714142Y15005858D01*
X25714142Y14977286D01*
D11*
X22349000Y15603572D02*
X22349000Y16003572D01*
X22349000Y15946429D02*
X22377571Y15975000D01*
X22434714Y16003572D01*
X22520428Y16003572D01*
X22577571Y15975000D01*
X22606142Y15917858D01*
X22606142Y15603572D01*
X22606142Y15917858D02*
X22634714Y15975000D01*
X22691857Y16003572D01*
X22777571Y16003572D01*
X22834714Y15975000D01*
X22863285Y15917858D01*
X22863285Y15603572D01*
X23406142Y15603572D02*
X23406142Y15917858D01*
X23377571Y15975000D01*
X23320428Y16003572D01*
X23206142Y16003572D01*
X23149000Y15975000D01*
X23406142Y15632143D02*
X23349000Y15603572D01*
X23206142Y15603572D01*
X23149000Y15632143D01*
X23120428Y15689286D01*
X23120428Y15746429D01*
X23149000Y15803572D01*
X23206142Y15832143D01*
X23349000Y15832143D01*
X23406142Y15860715D01*
X23634714Y16003572D02*
X23749000Y15603572D01*
X23863285Y15889286D01*
X23977571Y15603572D01*
X24091857Y16003572D01*
X24320428Y15603572D02*
X24320428Y16003572D01*
X24320428Y16203572D02*
X24291857Y16175000D01*
X24320428Y16146429D01*
X24349000Y16175000D01*
X24320428Y16203572D01*
X24320428Y16146429D01*
X24691857Y15603572D02*
X24634714Y15632143D01*
X24606142Y15689286D01*
X24606142Y16203572D01*
X25149000Y15632143D02*
X25091857Y15603572D01*
X24977571Y15603572D01*
X24920428Y15632143D01*
X24891857Y15689286D01*
X24891857Y15917858D01*
X24920428Y15975000D01*
X24977571Y16003572D01*
X25091857Y16003572D01*
X25149000Y15975000D01*
X25177571Y15917858D01*
X25177571Y15860715D01*
X24891857Y15803572D01*
D12*
X10795000Y12065000D02*
X9398000Y12065000D01*
X10795000Y12065000D02*
X10795000Y12573000D01*
X10795000Y13335000D02*
X10795000Y12954000D01*
X11208000Y12755572D02*
X11969904Y12755572D01*
X11588952Y12374620D02*
X11588952Y13136524D01*
X12350857Y13374620D02*
X12969904Y13374620D01*
X12636571Y12993667D01*
X12779428Y12993667D01*
X12874666Y12946048D01*
X12922285Y12898429D01*
X12969904Y12803191D01*
X12969904Y12565096D01*
X12922285Y12469858D01*
X12874666Y12422239D01*
X12779428Y12374620D01*
X12493714Y12374620D01*
X12398476Y12422239D01*
X12350857Y12469858D01*
X13398476Y12469858D02*
X13446095Y12422239D01*
X13398476Y12374620D01*
X13350857Y12422239D01*
X13398476Y12469858D01*
X13398476Y12374620D01*
X13779428Y13374620D02*
X14398476Y13374620D01*
X14065142Y12993667D01*
X14208000Y12993667D01*
X14303238Y12946048D01*
X14350857Y12898429D01*
X14398476Y12803191D01*
X14398476Y12565096D01*
X14350857Y12469858D01*
X14303238Y12422239D01*
X14208000Y12374620D01*
X13922285Y12374620D01*
X13827047Y12422239D01*
X13779428Y12469858D01*
X14684190Y13374620D02*
X15017523Y12374620D01*
X15350857Y13374620D01*
X7731285Y12755572D02*
X8493190Y12755572D01*
X8112238Y12374620D02*
X8112238Y13136524D01*
X9445571Y13374620D02*
X8969380Y13374620D01*
X8921761Y12898429D01*
X8969380Y12946048D01*
X9064619Y12993667D01*
X9302714Y12993667D01*
X9397952Y12946048D01*
X9445571Y12898429D01*
X9493190Y12803191D01*
X9493190Y12565096D01*
X9445571Y12469858D01*
X9397952Y12422239D01*
X9302714Y12374620D01*
X9064619Y12374620D01*
X8969380Y12422239D01*
X8921761Y12469858D01*
X9778904Y13374620D02*
X10112238Y12374620D01*
X10445571Y13374620D01*
D13*
G04 #@! TO.C,C1*
X19565252Y14172000D02*
X19042748Y14172000D01*
X19565252Y12752000D02*
X19042748Y12752000D01*
G04 #@! TO.C,C2*
X23614748Y14172000D02*
X24137252Y14172000D01*
X23614748Y12752000D02*
X24137252Y12752000D01*
G04 #@! TO.C,J1*
X18990000Y3750000D02*
X24190000Y3750000D01*
X18990000Y8890000D02*
X18990000Y3750000D01*
X24190000Y11490000D02*
X24190000Y3750000D01*
X18990000Y8890000D02*
X21590000Y8890000D01*
X21590000Y8890000D02*
X21590000Y11490000D01*
X21590000Y11490000D02*
X24190000Y11490000D01*
X18990000Y10160000D02*
X18990000Y11490000D01*
X18990000Y11490000D02*
X20320000Y11490000D01*
G04 #@! TO.C,J2*
X14545000Y1210000D02*
X17205000Y1210000D01*
X14545000Y8890000D02*
X14545000Y1210000D01*
X17205000Y8890000D02*
X17205000Y1210000D01*
X14545000Y8890000D02*
X17205000Y8890000D01*
X14545000Y10160000D02*
X14545000Y11490000D01*
X14545000Y11490000D02*
X15875000Y11490000D01*
G04 #@! TO.C,J3*
X10100000Y11490000D02*
X11430000Y11490000D01*
X10100000Y10160000D02*
X10100000Y11490000D01*
X10100000Y8890000D02*
X12760000Y8890000D01*
X12760000Y8890000D02*
X12760000Y1210000D01*
X10100000Y8890000D02*
X10100000Y1210000D01*
X10100000Y1210000D02*
X12760000Y1210000D01*
G04 #@! TO.C,J4*
X5655000Y1210000D02*
X8315000Y1210000D01*
X5655000Y8890000D02*
X5655000Y1210000D01*
X8315000Y8890000D02*
X8315000Y1210000D01*
X5655000Y8890000D02*
X8315000Y8890000D01*
X5655000Y10160000D02*
X5655000Y11490000D01*
X5655000Y11490000D02*
X6985000Y11490000D01*
G04 #@! TO.C,J5*
X1210000Y11490000D02*
X2540000Y11490000D01*
X1210000Y10160000D02*
X1210000Y11490000D01*
X1210000Y8890000D02*
X3870000Y8890000D01*
X3870000Y8890000D02*
X3870000Y1210000D01*
X1210000Y8890000D02*
X1210000Y1210000D01*
X1210000Y1210000D02*
X3870000Y1210000D01*
G04 #@! TD*
M02*
